<svg width="9" height="11" viewBox="0 0 9 11" fill="none" xmlns="http://www.w3.org/2000/svg">
<path d="M4.87149 10.5148C4.04816 10.5148 3.32882 10.3068 2.71349 9.89077C2.10682 9.47477 1.63882 8.90277 1.30949 8.17477C0.988825 7.4381 0.828491 6.6061 0.828491 5.67877C0.828491 4.7341 0.993158 3.89777 1.32249 3.16977C1.66049 2.4331 2.14582 1.8611 2.77849 1.45377C3.41982 1.04643 4.18682 0.842768 5.07949 0.842768C5.85949 0.842768 6.50082 0.994435 7.00349 1.29777C7.51483 1.6011 7.89183 1.9651 8.13449 2.38977C8.38583 2.80577 8.54183 3.22177 8.60249 3.63777L7.38049 3.80677C7.29383 3.3041 7.06416 2.85777 6.69149 2.46777C6.32749 2.07777 5.77716 1.88277 5.04049 1.88277C4.42516 1.88277 3.89216 2.0431 3.44149 2.36377C2.99949 2.68444 2.66149 3.13077 2.42749 3.70277C2.20216 4.27477 2.08949 4.93777 2.08949 5.69177C2.08949 6.80977 2.34082 7.71977 2.84349 8.42177C3.35483 9.12377 4.09149 9.47477 5.05349 9.47477C5.74683 9.47477 6.28849 9.31877 6.67849 9.00677C7.06849 8.6861 7.32849 8.31344 7.45849 7.88877C7.59716 7.4641 7.66649 7.05677 7.66649 6.66677V6.51077H4.96249V5.47077H8.77149V10.2938H7.87449L7.70549 8.81177C7.49749 9.3231 7.14216 9.73477 6.63949 10.0468C6.13683 10.3588 5.54749 10.5148 4.87149 10.5148Z" fill="#2A2A2A"/>
</svg>
