<svg width="9" height="8" viewBox="0 0 9 8" fill="none" xmlns="http://www.w3.org/2000/svg">
<path d="M2.20008 2.1176C1.96088 2.3776 1.48248 2.5024 1.09768 2.5024H0.848083V1.4H1.01448C1.68008 1.4 2.21048 1.0464 2.41848 0.307999H3.39608V7.692H2.20008V2.1176Z" fill="#2A2A2A"/>
<path d="M4.27992 7.692L5.81912 4.9776L4.39432 2.492H5.68392L6.30792 3.7816C6.41192 3.9896 6.48472 4.1456 6.52632 4.312H6.54712C6.57832 4.156 6.65112 3.9792 6.75512 3.7712L7.33752 2.492H8.60632L7.21272 5.0088L8.75192 7.692H7.44152L6.72392 6.2672C6.61992 6.0592 6.53672 5.872 6.50552 5.7368H6.48472C6.45352 5.8512 6.37032 6.0488 6.25592 6.2672L5.53832 7.692H4.27992Z" fill="#2A2A2A"/>
</svg>
